# xmcd CD database file generated by Grip 3.3.1
# 
# Track frame offsets:
#       150
#       51232
#       89000
#       99485
#       124822
#       142450
#       180935
#       212110
#       219512
# 
# Disc length: 3646 seconds
# 
# Revision: 3
# Processed by: cddbd v1.5.1PL0 Copyright (c) Steve Scherf et al.
# Submitted via: Grip 3.3.1
# 
DISCID=8b0e3c09
DTITLE=稲川淳二 - 稲川淳二の実体験怪異談 怖いから聞か
DTITLE=ないで
DYEAR=1991
DGENRE=Other
TTITLE0=引越しの怪
TTITLE1=海に潜む者
TTITLE2=つける足音
TTITLE3=魔界の踏切
TTITLE4=夜往く死者
TTITLE5=最後のダイビング
TTITLE6=手のトンネル
TTITLE7=Rスタジオ 6月21日(金) 異変
TTITLE8=傷跡
EXTD=
EXTT0=
EXTT1=
EXTT2=
EXTT3=
EXTT4=
EXTT5=
EXTT6=
EXTT7=
EXTT8=
PLAYORDER=
